<svg width="69" height="70" viewBox="0 0 69 70" fill="none" xmlns="http://www.w3.org/2000/svg">
<path d="M58.1955 68.1217L57.7673 68.7375L58.9455 69.5566V68.1217H58.1955ZM58.1955 61.1694V60.4194H57.4455V61.1694H58.1955ZM47.3141 61.2798L47.45 60.5422L47.3141 61.2798ZM50.9408 63.078L50.5127 63.6938L50.9408 63.078ZM48.8561 61.7632L48.5467 62.4464L48.8561 61.7632ZM28.9221 57.5293L29.5904 57.1888L28.9221 57.5293ZM31.8355 60.4427L32.176 59.7745L31.8355 60.4427ZM31.8355 32.1817L32.176 32.85L31.8355 32.1817ZM28.9221 35.0951L29.5904 35.4356L28.9221 35.0951ZM64.5554 32.1817L64.2149 32.85L64.5554 32.1817ZM67.4688 35.0951L66.8006 35.4356L67.4688 35.0951ZM28.7291 45.3154C29.0202 45.0207 29.0172 44.5459 28.7225 44.2548C28.4278 43.9637 27.9529 43.9667 27.6619 44.2614L28.7291 45.3154ZM17.9446 55.1674L17.411 54.6404L17.9446 55.1674ZM57.4455 31.4551V32.2051H58.9455V31.4551H57.4455ZM13.782 56.8139L14.3514 56.3257L14.3514 56.3257L13.782 56.8139ZM15.1853 57.3901L15.1232 56.6426H15.1232L15.1853 57.3901ZM1.63439 36.2377L0.892311 36.3464L1.63439 36.2377ZM52.7354 2.54501L53.0759 1.87676V1.87676L52.7354 2.54501ZM57.1055 6.91517L57.7738 6.57468L57.1055 6.91517ZM6.9889 2.54501L7.3294 3.21327L6.9889 2.54501ZM2.61874 6.91517L3.287 7.25567L2.61874 6.91517ZM13.3728 47.5415L12.6247 47.5959L13.3728 47.5415ZM11.0295 44.83L10.8673 45.5622L11.0295 44.83ZM57.5288 30.7051H38.8621V32.2051H57.5288V30.7051ZM27.4455 42.1217V50.5027H28.9455V42.1217H27.4455ZM38.8621 61.9194H44.8519V60.4194H38.8621V61.9194ZM50.5127 63.6938L57.7673 68.7375L58.6236 67.5059L51.3689 62.4622L50.5127 63.6938ZM68.9455 51.1694V42.1217H67.4455V51.1694H68.9455ZM58.9455 68.1217V61.1694H57.4455V68.1217H58.9455ZM44.8519 61.9194C46.1207 61.9194 46.6619 61.9222 47.1781 62.0174L47.45 60.5422C46.768 60.4165 46.0672 60.4194 44.8519 60.4194V61.9194ZM51.3689 62.4622C50.3711 61.7685 49.7973 61.3661 49.1656 61.08L48.5467 62.4464C49.0249 62.6629 49.4709 62.9695 50.5127 63.6938L51.3689 62.4622ZM47.1781 62.0174C47.65 62.1043 48.1096 62.2484 48.5467 62.4464L49.1656 61.08C48.6176 60.8318 48.0415 60.6512 47.45 60.5422L47.1781 62.0174ZM27.4455 50.5027C27.4455 52.3572 27.4449 53.7931 27.5388 54.9424C27.6334 56.1005 27.8277 57.0334 28.2538 57.8698L29.5904 57.1888C29.2899 56.5991 29.1208 55.8856 29.0338 54.8203C28.9461 53.7462 28.9455 52.3819 28.9455 50.5027H27.4455ZM38.8621 60.4194C36.9829 60.4194 35.6186 60.4188 34.5446 60.331C33.4793 60.244 32.7657 60.0749 32.176 59.7745L31.495 61.111C32.3314 61.5372 33.2644 61.7314 34.4224 61.826C35.5717 61.9199 37.0077 61.9194 38.8621 61.9194V60.4194ZM28.2538 57.8698C28.9649 59.2653 30.0995 60.3999 31.495 61.111L32.176 59.7745C31.0627 59.2072 30.1576 58.3021 29.5904 57.1888L28.2538 57.8698ZM38.8621 30.7051C37.0077 30.7051 35.5717 30.7045 34.4224 30.7984C33.2644 30.893 32.3314 31.0873 31.495 31.5134L32.176 32.85C32.7657 32.5495 33.4793 32.3805 34.5446 32.2934C35.6186 32.2057 36.9829 32.2051 38.8621 32.2051V30.7051ZM28.9455 42.1217C28.9455 40.2425 28.9461 38.8782 29.0338 37.8042C29.1208 36.7389 29.2899 36.0253 29.5904 35.4356L28.2538 34.7546C27.8277 35.591 27.6334 36.524 27.5388 37.682C27.4449 38.8313 27.4455 40.2673 27.4455 42.1217H28.9455ZM31.495 31.5134C30.0995 32.2245 28.9649 33.3591 28.2538 34.7546L29.5904 35.4356C30.1576 34.3223 31.0627 33.4172 32.176 32.85L31.495 31.5134ZM67.4455 51.1694C67.4455 52.7328 67.4451 53.8678 67.3838 54.766C67.323 55.6575 67.2047 56.261 66.9951 56.7669L68.3809 57.3409C68.6788 56.6217 68.8143 55.836 68.8803 54.8681C68.9459 53.907 68.9455 52.7122 68.9455 51.1694H67.4455ZM58.1955 61.9194C59.7383 61.9194 60.9331 61.9198 61.8942 61.8542C62.8621 61.7882 63.6479 61.6527 64.367 61.3548L63.793 59.969C63.2871 60.1786 62.6837 60.2968 61.7921 60.3577C60.8939 60.419 59.7589 60.4194 58.1955 60.4194V61.9194ZM66.9951 56.7669C66.3946 58.2167 65.2428 59.3685 63.793 59.969L64.367 61.3548C66.1843 60.6021 67.6282 59.1582 68.3809 57.3409L66.9951 56.7669ZM57.5288 32.2051C59.408 32.2051 60.7723 32.2057 61.8464 32.2934C62.9117 32.3805 63.6252 32.5495 64.2149 32.85L64.8959 31.5134C64.0595 31.0873 63.1266 30.893 61.9685 30.7984C60.8192 30.7045 59.3833 30.7051 57.5288 30.7051V32.2051ZM68.9455 42.1217C68.9455 40.2673 68.9461 38.8313 68.8522 37.682C68.7575 36.524 68.5633 35.591 68.1371 34.7546L66.8006 35.4356C67.1011 36.0253 67.2701 36.7389 67.3571 37.8042C67.4449 38.8782 67.4455 40.2425 67.4455 42.1217H68.9455ZM64.2149 32.85C65.3282 33.4172 66.2333 34.3223 66.8006 35.4356L68.1371 34.7546C67.426 33.3591 66.2914 32.2245 64.8959 31.5134L64.2149 32.85ZM17.5288 2.20508H42.1955V0.705078H17.5288V2.20508ZM2.27881 32.9366V17.4551H0.778809V32.9366H2.27881ZM14.1307 53.2935V48.0938H12.6307V53.2935H14.1307ZM27.6619 44.2614L17.411 54.6404L18.4782 55.6944L28.7291 45.3154L27.6619 44.2614ZM57.4455 17.4551V31.4551H58.9455V17.4551H57.4455ZM12.6307 53.2935C12.6307 54.2961 12.6299 55.099 12.6837 55.7073C12.7353 56.2901 12.8462 56.8747 13.2126 57.302L14.3514 56.3257C14.3164 56.2849 14.2267 56.1267 14.1779 55.5751C14.1314 55.0489 14.1307 54.3258 14.1307 53.2935H12.6307ZM17.411 54.6404C16.6857 55.3748 16.177 55.8888 15.7741 56.2305C15.3518 56.5887 15.1768 56.6382 15.1232 56.6426L15.2474 58.1375C15.8084 58.0909 16.2981 57.7529 16.7443 57.3745C17.21 56.9795 17.7737 56.4077 18.4782 55.6944L17.411 54.6404ZM13.2126 57.302C13.7175 57.8909 14.4744 58.2017 15.2474 58.1375L15.1232 56.6426C14.83 56.667 14.5429 56.5491 14.3514 56.3257L13.2126 57.302ZM0.778809 32.9366C0.778809 34.6303 0.776812 35.5579 0.892311 36.3464L2.37647 36.129C2.2808 35.4759 2.27881 34.6833 2.27881 32.9366H0.778809ZM0.892311 36.3464C1.58067 41.0458 5.27139 44.7365 9.97079 45.4249L10.1882 43.9407C6.14452 43.3484 2.96879 40.1727 2.37647 36.129L0.892311 36.3464ZM42.1955 2.20508C45.0081 2.20508 47.0725 2.20566 48.7024 2.33883C50.3235 2.47128 51.4487 2.73115 52.3949 3.21327L53.0759 1.87676C51.883 1.26894 50.5384 0.983842 48.8245 0.843811C47.1194 0.704495 44.9834 0.705078 42.1955 0.705078V2.20508ZM58.9455 17.4551C58.9455 14.6672 58.9461 12.5312 58.8067 10.826C58.6667 9.11212 58.3816 7.76759 57.7738 6.57468L56.4373 7.25567C56.9194 8.20187 57.1793 9.32703 57.3117 10.9482C57.4449 12.5781 57.4455 14.6424 57.4455 17.4551H58.9455ZM52.3949 3.21327C54.1354 4.1001 55.5505 5.51517 56.4373 7.25567L57.7738 6.57468C56.7432 4.55194 55.0986 2.9074 53.0759 1.87676L52.3949 3.21327ZM17.5288 0.705078C14.7409 0.705078 12.6049 0.704495 10.8998 0.843811C9.18585 0.983842 7.84132 1.26894 6.64841 1.87676L7.3294 3.21327C8.2756 2.73115 9.40076 2.47128 11.0219 2.33883C12.6518 2.20566 14.7162 2.20508 17.5288 2.20508V0.705078ZM2.27881 17.4551C2.27881 14.6424 2.27939 12.5781 2.41256 10.9482C2.54501 9.32703 2.80488 8.20187 3.287 7.25567L1.95049 6.57468C1.34267 7.76759 1.05757 9.11212 0.917541 10.826C0.778225 12.5312 0.778809 14.6672 0.778809 17.4551H2.27881ZM6.64841 1.87676C4.62567 2.9074 2.98113 4.55194 1.95049 6.57468L3.287 7.25567C4.17383 5.51517 5.5889 4.1001 7.3294 3.21327L6.64841 1.87676ZM14.1307 48.0938C14.1307 47.8135 14.1312 47.6302 14.1208 47.4872L12.6247 47.5959C12.6301 47.67 12.6307 47.7825 12.6307 48.0938H14.1307ZM9.97079 45.4249C10.5572 45.5108 10.7959 45.5464 10.8673 45.5622L11.1917 44.0977C11.0505 44.0664 10.7267 44.0196 10.1882 43.9407L9.97079 45.4249ZM14.1208 47.4872C14.0583 46.6273 13.7871 45.8651 13.2677 45.264C12.7482 44.663 12.0334 44.2841 11.1917 44.0977L10.8673 45.5622C11.4632 45.6942 11.8666 45.9369 12.1327 46.2448C12.3989 46.5528 12.5805 46.9871 12.6247 47.5959L14.1208 47.4872Z" fill="black"/>
</svg>
