<svg width="25" height="25" viewBox="0 0 25 25" fill="none" xmlns="http://www.w3.org/2000/svg">
<g clip-path="url(#clip0_167_266)">
<path d="M23.4824 12.5303L24.0127 11.9998L22.9519 10.9393L22.4216 11.4697L23.4824 12.5303ZM20.9526 14L20.4224 14.5304L20.9528 15.0607L21.483 14.5303L20.9526 14ZM19.4823 11.4696L18.9519 10.9393L17.8914 12.0002L18.4218 12.5304L19.4823 11.4696ZM20.4517 13.4176C20.4062 13.8293 20.703 14.1999 21.1147 14.2455C21.5264 14.291 21.8971 13.9941 21.9426 13.5824L20.4517 13.4176ZM19.8351 18.6291L20.3069 18.0461L19.1408 17.1025L18.669 17.6855L19.8351 18.6291ZM13.0021 7.5V6.75H11.5021V7.5H13.0021ZM12.2521 12.5H11.5021V12.9014L11.8361 13.124L12.2521 12.5ZM14.8361 15.124L15.4601 15.5401L16.2921 14.292L15.6681 13.876L14.8361 15.124ZM22.4216 11.4697L20.4222 13.4697L21.483 14.5303L23.4824 12.5303L22.4216 11.4697ZM21.4829 13.4696L19.4823 11.4696L18.4218 12.5304L20.4224 14.5304L21.4829 13.4696ZM12.2521 20.75C7.69573 20.75 4.00208 17.0563 4.00208 12.5H2.50208C2.50208 17.8848 6.8673 22.25 12.2521 22.25V20.75ZM4.00208 12.5C4.00208 7.94365 7.69573 4.25 12.2521 4.25V2.75C6.8673 2.75 2.50208 7.11522 2.50208 12.5H4.00208ZM12.2521 4.25C16.8084 4.25 20.5021 7.94365 20.5021 12.5H22.0021C22.0021 7.11522 17.6369 2.75 12.2521 2.75V4.25ZM20.5021 12.5C20.5021 12.8104 20.485 13.1166 20.4517 13.4176L21.9426 13.5824C21.9819 13.2268 22.0021 12.8656 22.0021 12.5H20.5021ZM18.669 17.6855C17.1554 19.5561 14.8434 20.75 12.2521 20.75V22.25C15.3153 22.25 18.0489 20.8365 19.8351 18.6291L18.669 17.6855ZM11.5021 7.5V12.5H13.0021V7.5H11.5021ZM11.8361 13.124L14.8361 15.124L15.6681 13.876L12.6681 11.876L11.8361 13.124Z" fill="black"/>
</g>
<defs>
<clipPath id="clip0_167_266">
<rect width="24" height="24" fill="white" transform="translate(0.252075 0.5)"/>
</clipPath>
</defs>
</svg>
