<svg width="22" height="23" viewBox="0 0 22 23" fill="none" xmlns="http://www.w3.org/2000/svg">
<path d="M6.87598 13.5C6.87598 13.5 8.37598 15.5 10.876 15.5C13.376 15.5 14.876 13.5 14.876 13.5M15.876 8.74C15.481 9.225 14.941 9.5 14.376 9.5C13.811 9.5 13.286 9.225 12.876 8.74M8.87598 8.74C8.48098 9.225 7.94098 9.5 7.37598 9.5C6.81098 9.5 6.28598 9.225 5.87598 8.74M20.876 11.5C20.876 17.0228 16.3988 21.5 10.876 21.5C5.35313 21.5 0.875977 17.0228 0.875977 11.5C0.875977 5.97715 5.35313 1.5 10.876 1.5C16.3988 1.5 20.876 5.97715 20.876 11.5Z" stroke="black" stroke-width="1.5" stroke-linecap="square"/>
</svg>
