<svg width="5" height="18" viewBox="0 0 5 18" fill="none" xmlns="http://www.w3.org/2000/svg">
<path d="M2.5 10.1914C3.05228 10.1914 3.5 9.74369 3.5 9.19141C3.5 8.63912 3.05228 8.19141 2.5 8.19141C1.94772 8.19141 1.5 8.63912 1.5 9.19141C1.5 9.74369 1.94772 10.1914 2.5 10.1914Z" fill="white"/>
<path d="M2.5 3.19141C3.05228 3.19141 3.5 2.74369 3.5 2.19141C3.5 1.63912 3.05228 1.19141 2.5 1.19141C1.94772 1.19141 1.5 1.63912 1.5 2.19141C1.5 2.74369 1.94772 3.19141 2.5 3.19141Z" fill="white"/>
<path d="M2.5 17.1914C3.05228 17.1914 3.5 16.7437 3.5 16.1914C3.5 15.6391 3.05228 15.1914 2.5 15.1914C1.94772 15.1914 1.5 15.6391 1.5 16.1914C1.5 16.7437 1.94772 17.1914 2.5 17.1914Z" fill="white"/>
<path d="M2.5 10.1914C3.05228 10.1914 3.5 9.74369 3.5 9.19141C3.5 8.63912 3.05228 8.19141 2.5 8.19141C1.94772 8.19141 1.5 8.63912 1.5 9.19141C1.5 9.74369 1.94772 10.1914 2.5 10.1914Z" stroke="white" stroke-width="1.5" stroke-linecap="square"/>
<path d="M2.5 3.19141C3.05228 3.19141 3.5 2.74369 3.5 2.19141C3.5 1.63912 3.05228 1.19141 2.5 1.19141C1.94772 1.19141 1.5 1.63912 1.5 2.19141C1.5 2.74369 1.94772 3.19141 2.5 3.19141Z" stroke="white" stroke-width="1.5" stroke-linecap="square"/>
<path d="M2.5 17.1914C3.05228 17.1914 3.5 16.7437 3.5 16.1914C3.5 15.6391 3.05228 15.1914 2.5 15.1914C1.94772 15.1914 1.5 15.6391 1.5 16.1914C1.5 16.7437 1.94772 17.1914 2.5 17.1914Z" stroke="white" stroke-width="1.5" stroke-linecap="square"/>
</svg>
